<svg width="84" height="84" viewBox="0 0 84 84" fill="none" xmlns="http://www.w3.org/2000/svg">
<path d="M58.553 46.1999C54.353 54.847 45.4589 61.0235 35.0824 61.0235C21.0001 61.0235 9.14124 49.4117 9.14124 35.0823C9.14124 20.9999 20.5059 9.14112 35.0824 9.14112C42.0001 9.14112 48.6707 11.8588 53.6118 16.7999C56.5765 19.7647 58.553 23.2235 59.7883 26.9294L65.4707 21.247C63.7412 17.5411 61.5177 14.3294 58.553 11.3647C52.1295 5.18818 43.7295 1.4823 34.8354 1.4823C16.553 1.72936 1.48242 16.7999 1.48242 35.0823C1.48242 53.6117 16.553 68.4352 34.8354 68.4352C52.1295 68.4352 65.9648 55.3411 67.9412 39.2823C64.2354 42.7411 62.753 46.1999 58.553 46.1999Z" fill="#009FE8"/>
<path d="M79.5525 79.5529C75.8467 83.2588 69.6702 83.2588 65.7172 79.5529L54.3525 68.1882C57.0702 66.4588 59.7878 64.4823 62.0114 62.2588C64.482 59.7882 66.4584 57.3176 68.1878 54.3529L79.5525 65.7176C83.2584 69.4235 83.5055 75.6 79.5525 79.5529Z" fill="#009FE8"/>
<path d="M77.3291 23.2234L72.635 27.9176L59.788 40.5176C58.7997 41.5058 57.3174 41.5058 56.3291 40.5176L48.1762 32.3646L35.3291 45.2117C34.3409 46.1999 32.8586 46.1999 31.8703 45.2117L26.188 39.5293L18.035 47.6823C17.0468 46.447 16.0586 44.7176 15.3174 43.2352L24.4586 34.5881C25.4468 33.5999 26.9291 33.5999 27.9174 34.5881L33.5997 40.2705L46.4468 27.4234C47.435 26.4352 48.9174 26.4352 49.9056 27.4234L55.835 33.3528L58.0586 35.5764L71.1527 22.4823L73.8703 19.7646C74.8586 18.7764 76.3409 18.7764 77.3291 19.7646C78.3174 20.7528 78.3174 22.2352 77.3291 23.2234Z" fill="#009FE8"/>
</svg>
