<svg width="93" height="93" viewBox="0 0 93 93" fill="none" xmlns="http://www.w3.org/2000/svg">
<path d="M81.6549 18.6111C75.3988 18.6111 70.3094 23.7008 70.3094 29.9565C70.3094 32.9714 71.4937 35.7132 73.4185 37.747L63.9065 52.0829C62.9711 51.8327 61.9895 51.6971 60.9762 51.6971C58.033 51.6971 55.3482 52.824 53.3301 54.6684L46.2351 47.5734C47.0458 46.0121 47.507 44.2411 47.507 42.3635C47.507 36.1074 42.4174 31.0181 36.1613 31.0181C29.9052 31.0181 24.8158 36.1077 24.8158 42.3635C24.8158 44.0933 25.2063 45.7328 25.9015 47.2011L17.8279 53.7384C15.9889 52.4533 13.755 51.6968 11.3464 51.6968C5.08967 51.6974 0 56.7871 0 63.0435C0 69.2996 5.08967 74.3889 11.3458 74.3889C17.6019 74.3889 22.6912 69.2992 22.6912 63.0435C22.6912 61.4233 22.3474 59.883 21.733 58.4874L29.9371 51.8439C31.7254 53.0219 33.8635 53.7099 36.1603 53.7099C38.3087 53.7099 40.3194 53.1096 42.0338 52.0681L50.0293 60.0637C49.7704 61.0137 49.6298 62.012 49.6298 63.0432C49.6298 69.2992 54.7194 74.3886 60.9755 74.3886C67.2316 74.3886 72.321 69.2989 72.321 63.0432C72.321 60.0189 71.1292 57.2693 69.1937 55.2336L78.698 40.9093C79.6411 41.1642 80.6316 41.3023 81.6543 41.3023C87.9103 41.3023 93 36.2126 93 29.9565C93.0006 23.7008 87.911 18.6111 81.6549 18.6111ZM11.3458 68.2409C8.47965 68.2409 6.14806 65.9093 6.14806 63.0435C6.14806 60.1774 8.47965 57.8458 11.3458 57.8458C14.2116 57.8458 16.5432 60.1774 16.5432 63.0435C16.5435 65.909 14.2116 68.2409 11.3458 68.2409ZM36.1607 47.5618C33.2949 47.5618 30.9633 45.2302 30.9633 42.3641C30.9633 39.4983 33.2949 37.1667 36.1607 37.1667C39.0268 37.1667 41.3584 39.4983 41.3584 42.3641C41.3584 45.2302 39.0268 47.5618 36.1607 47.5618ZM60.9758 68.2409C58.1097 68.2409 55.7781 65.9093 55.7781 63.0435C55.7781 60.1774 58.1097 57.8458 60.9758 57.8458C63.8416 57.8458 66.1732 60.1774 66.1732 63.0435C66.1732 65.909 63.8416 68.2409 60.9758 68.2409ZM81.6549 35.1545C78.7891 35.1545 76.4575 32.823 76.4575 29.9568C76.4575 27.0911 78.7891 24.7595 81.6549 24.7595C84.521 24.7595 86.8526 27.0911 86.8526 29.9568C86.8526 32.8226 84.5207 35.1545 81.6549 35.1545Z" fill="#009FE8"/>
</svg>
