<svg width="67" height="63" viewBox="0 0 67 63" fill="none" xmlns="http://www.w3.org/2000/svg">
<path d="M63.9038 27.3588H30.6212L29.2034 21.4857C28.9776 20.55 28.4637 19.745 27.7179 19.158C27.189 18.7414 26.5823 18.4668 25.9342 18.3395C25.1236 16.5315 23.1944 15.1743 20.4336 14.4894C19.0631 14.1493 17.694 13.9082 16.3289 13.7586C18.2937 12.3631 19.6246 9.70489 19.6246 6.65998C19.6246 2.55193 17.1568 0 13.1839 0C9.21114 0 6.74327 2.55193 6.74327 6.65998C6.74327 9.69802 8.06834 12.3509 10.0256 13.749C8.64888 13.8979 7.28113 14.1431 5.9261 14.4917C2.10462 15.4744 0 17.5779 0 20.4142V33.9942C0 36.9376 2.2289 39.389 5.14655 39.8657L5.14642 61.628C5.14642 61.9033 5.25578 62.1672 5.45038 62.3619C5.6451 62.5565 5.90897 62.6659 6.18426 62.6659H20.1836C20.7568 62.6659 21.2215 62.2012 21.2215 61.628V39.8657C24.1391 39.389 26.3682 36.9376 26.3682 33.9942V31.1608L29.7545 45.1883C29.1572 45.4991 28.6055 45.9024 28.1283 46.3794C26.8854 47.6224 26.2008 49.2709 26.2008 51.021C26.2008 52.7711 26.8854 54.4194 28.1283 55.6628C29.0605 56.5949 30.2353 57.2171 31.506 57.4667C31.8459 60.3894 34.3352 62.6656 37.3475 62.6656C40.3173 62.6656 42.7786 60.4532 43.1733 57.5903H49.4466C49.8414 60.4532 52.3027 62.6656 55.2724 62.6656C58.5161 62.6656 61.1549 60.0268 61.1549 56.7831C61.1549 53.5395 58.5161 50.9006 55.2724 50.9006C53.6877 50.9006 52.2485 51.5315 51.1898 52.5539H41.43C40.3713 51.5315 38.932 50.9006 37.3474 50.9006C35.7627 50.9006 34.3236 51.5315 33.2649 52.5539H32.7701C32.3648 52.5539 31.9809 52.3933 31.6893 52.1015C31.3977 51.8099 31.2371 51.4262 31.2371 51.0209C31.2371 50.6157 31.3977 50.2319 31.6892 49.9402C31.9809 49.6485 32.365 49.4878 32.7701 49.4878H42.4096C43.4472 49.4878 44.3382 48.8505 44.7134 47.947H56.0734C57.5095 47.947 58.8732 47.5009 60.0169 46.6566C61.1537 45.8176 61.9791 44.6464 62.4037 43.2696L66.261 30.7637C66.3676 30.4804 66.4217 30.1824 66.4217 29.877C66.4219 28.4883 65.2923 27.3588 63.9038 27.3588ZM54.4573 45.8713H48.5723V41.7166H54.4573V45.8713ZM42.4095 44.4516H40.6118V41.7166H46.4966V45.8713H44.6568C44.2544 45.0332 43.3997 44.4516 42.4095 44.4516ZM46.4966 35.5458V39.6409H40.6118V35.5458H46.4966ZM40.6118 33.4701V29.4346H46.4966V33.4701H40.6118ZM38.5361 39.6409H33.5862L32.5976 35.5458H38.536V39.6409H38.5361ZM38.5361 41.7166V44.4516H34.7476L34.0874 41.7166H38.5361ZM48.5723 39.6409V35.5458H54.4573V39.6409H48.5723ZM48.5723 33.4701V29.4346H54.4573V33.4701H48.5723ZM38.5361 29.4345V33.47H32.0965L31.1223 29.4345H38.5361ZM8.81883 6.65998C8.81883 2.67128 11.5537 2.07569 13.1838 2.07569C14.8139 2.07569 17.5488 2.67128 17.5488 6.65998C17.5488 10.0033 15.5906 12.7231 13.1838 12.7231C10.777 12.7232 8.81883 10.0033 8.81883 6.65998ZM21.2215 37.7483V25.2178C21.2215 24.6447 20.7568 24.18 20.1836 24.18C19.6105 24.18 19.1458 24.6447 19.1458 25.2178V60.5902H14.4145V45.3393C14.4145 44.7662 13.9498 44.3015 13.3767 44.3015C12.8035 44.3015 12.3388 44.7662 12.3388 45.3393V60.5902H7.22211L7.22224 25.2178C7.22224 24.6447 6.75754 24.18 6.18439 24.18C5.61124 24.18 5.14655 24.6447 5.14655 25.2178V37.7483C3.38182 37.313 2.07569 35.795 2.07569 33.9942V20.4142C2.07569 18.109 4.45067 17.0143 6.44295 16.502C10.8356 15.3723 15.3745 15.373 19.9336 16.5042C20.9154 16.7478 22.4394 17.2639 23.3995 18.2567H21.7259C20.3374 18.2567 19.2077 19.3864 19.2077 20.7749C19.2077 22.1634 20.3374 23.293 21.7259 23.293H24.2923V33.9942C24.2925 35.795 22.9862 37.3129 21.2215 37.7483ZM42.8198 54.6297H49.7999C49.6872 54.9146 49.5963 55.2101 49.5291 55.5146H43.0907C43.0235 55.2101 42.9324 54.9146 42.8198 54.6297ZM55.2724 52.9764C57.3716 52.9764 59.0792 54.6841 59.0792 56.7833C59.0792 58.8824 57.3716 60.5901 55.2724 60.5901C53.1732 60.5901 51.4655 58.8824 51.4655 56.7833C51.4655 54.6841 53.1732 52.9764 55.2724 52.9764ZM37.3474 52.9764C39.4466 52.9764 41.1543 54.6841 41.1543 56.7833C41.1543 58.8824 39.4466 60.5901 37.3474 60.5901C35.2482 60.5901 33.5406 58.8824 33.5406 56.7833C33.5406 54.6841 35.2482 52.9764 37.3474 52.9764ZM42.8277 46.994C42.8277 47.2246 42.6401 47.4123 42.4095 47.4123H32.77C31.8105 47.4123 30.9054 47.7888 30.2213 48.4727C29.5376 49.1565 29.1611 50.0615 29.1611 51.0211C29.1611 51.9808 29.5376 52.8859 30.2213 53.5697C30.6974 54.0458 31.2809 54.3725 31.9154 54.5272C31.8026 54.7981 31.7097 55.0791 31.6379 55.3685C30.8729 55.1684 30.168 54.7674 29.596 54.1954C28.7448 53.3441 28.2762 52.217 28.2762 51.0213C28.2762 49.8255 28.7448 48.6984 29.596 47.8474C30.0775 47.3657 30.6695 46.9942 31.3076 46.773C31.8126 46.598 32.102 46.0683 31.9765 45.5488L26.3352 22.1793C26.1961 21.6038 25.7026 21.2172 25.1073 21.2172H21.726C21.482 21.2172 21.2835 21.0188 21.2835 20.7748C21.2835 20.5308 21.482 20.3323 21.726 20.3323H25.1073C25.5959 20.3323 26.0545 20.4902 26.4339 20.789C26.8103 21.0851 27.0703 21.4946 27.1858 21.973L32.9216 45.7329C33.0341 46.1989 33.4511 46.5273 33.9304 46.5273H42.4095C42.64 46.5273 42.8277 46.7149 42.8277 46.9455V46.994ZM58.7843 44.9866C58.1229 45.4748 57.3517 45.7663 56.533 45.8463V41.7166H60.7106L60.4202 42.6579C60.1273 43.6077 59.5616 44.4129 58.7843 44.9866ZM61.3508 39.6409H56.533V35.5458H62.6139L61.3508 39.6409ZM64.3157 30.0395C64.3054 30.0651 64.2963 30.0912 64.2882 30.1176L63.2541 33.4701H56.533V29.4346H63.9037C64.1477 29.4346 64.346 29.633 64.346 29.877C64.3462 29.9339 64.3359 29.9887 64.3157 30.0395ZM37.3474 59.7937C39.0074 59.7937 40.3579 58.4432 40.3579 56.7833C40.3579 55.1233 39.0074 53.7729 37.3474 53.7729C35.6875 53.7729 34.3371 55.1233 34.3371 56.7833C34.3371 58.4432 35.6875 59.7937 37.3474 59.7937ZM37.3474 55.8485C37.8629 55.8485 38.2822 56.2678 38.2822 56.7833C38.2822 57.2987 37.8629 57.718 37.3474 57.718C36.832 57.718 36.4128 57.2987 36.4128 56.7833C36.4128 56.2678 36.832 55.8485 37.3474 55.8485ZM55.2724 59.7937C56.9323 59.7937 58.2827 58.4432 58.2827 56.7833C58.2827 55.1233 56.9323 53.7729 55.2724 53.7729C53.6125 53.7729 52.262 55.1233 52.262 56.7833C52.262 58.4432 53.6125 59.7937 55.2724 59.7937ZM55.2724 55.8485C55.7878 55.8485 56.207 56.2678 56.207 56.7833C56.207 57.2987 55.7878 57.718 55.2724 57.718C54.757 57.718 54.3377 57.2987 54.3377 56.7833C54.3377 56.2678 54.757 55.8485 55.2724 55.8485Z" fill="#009FE8"/>
</svg>
