<svg width="62" height="45" viewBox="0 0 62 45" fill="none" xmlns="http://www.w3.org/2000/svg">
<path d="M31.2549 20.6735C32.9652 20.6735 34.6372 20.1663 36.0593 19.216C37.4814 18.2658 38.5898 16.9152 39.2443 15.335C39.8988 13.7548 40.07 12.0161 39.7363 10.3386C39.4026 8.66109 38.579 7.12022 37.3696 5.91083C36.1602 4.70143 34.6193 3.87782 32.9418 3.54416C31.2643 3.21049 29.5255 3.38175 27.9454 4.03629C26.3652 4.69082 25.0146 5.79922 24.0644 7.22133C23.1142 8.64345 22.607 10.3154 22.607 12.0258C22.6096 14.3185 23.5215 16.5166 25.1428 18.1378C26.764 19.759 28.9621 20.671 31.2549 20.6735ZM31.2549 5.378C32.5697 5.37803 33.8549 5.76793 34.9481 6.49841C36.0413 7.22889 36.8934 8.26714 37.3965 9.48186C37.8996 10.6966 38.0313 12.0332 37.7747 13.3227C37.5182 14.6123 36.8851 15.7968 35.9554 16.7265C35.0257 17.6562 33.8411 18.2893 32.5516 18.5458C31.2621 18.8023 29.9254 18.6706 28.7107 18.1675C27.496 17.6643 26.4578 16.8122 25.7273 15.719C24.9969 14.6258 24.607 13.3405 24.607 12.0258C24.609 10.2633 25.3101 8.57356 26.5564 7.32731C27.8026 6.08107 29.4924 5.37996 31.2549 5.378ZM12.6452 15.309C14.1592 15.309 15.6391 14.8601 16.8979 14.019C18.1566 13.1779 19.1377 11.9824 19.7171 10.5838C20.2964 9.18508 20.448 7.64601 20.1527 6.16118C19.8573 4.67636 19.1283 3.31246 18.0578 2.24196C16.9873 1.17145 15.6234 0.442433 14.1386 0.147083C12.6537 -0.148268 11.1147 0.00331652 9.716 0.582668C8.31732 1.16202 7.12185 2.14312 6.28077 3.40189C5.43968 4.66067 4.99075 6.14059 4.99075 7.6545C4.99287 9.68395 5.8 11.6297 7.23504 13.0647C8.67008 14.4998 10.6158 15.3069 12.6452 15.309ZM12.6452 2.00013C13.7636 2.00013 14.8569 2.33176 15.7867 2.95309C16.7166 3.57442 17.4414 4.45754 17.8693 5.49077C18.2973 6.52401 18.4093 7.66094 18.1911 8.75781C17.9729 9.85468 17.4343 10.8622 16.6435 11.653C15.8527 12.4438 14.8452 12.9823 13.7483 13.2005C12.6514 13.4187 11.5145 13.3067 10.4813 12.8787C9.44806 12.4507 8.56495 11.7259 7.94364 10.796C7.32233 9.86611 6.99072 8.77286 6.99075 7.6545C6.99247 6.15538 7.58877 4.71814 8.64882 3.65811C9.70888 2.59808 11.1461 2.00182 12.6452 2.00013ZM52.6952 16.4444H46.0142C44.1483 16.4503 42.3269 17.0149 40.7849 18.0655C39.2428 19.1161 38.0508 20.6045 37.3625 22.3389C36.6176 22.1743 35.8571 22.0911 35.0942 22.0906H27.4157C26.493 22.0906 25.5742 22.212 24.6831 22.4518C24.0145 20.686 22.8243 19.1656 21.2707 18.0925C19.7172 17.0195 17.8739 16.4446 15.9857 16.4444H9.30475C6.83795 16.4472 4.47298 17.4283 2.72862 19.1726C0.984273 20.9168 0.00297751 23.2817 0 25.7485V32.286C4.46852e-07 32.4339 0.0328053 32.58 0.096051 32.7136C0.159297 32.8473 0.251408 32.9653 0.36575 33.0591C3.50887 35.6375 8.23225 36.6524 12.6175 36.6524C14.0418 36.654 15.464 36.5447 16.8712 36.3254V40.1478C16.8713 40.2957 16.9041 40.4417 16.9673 40.5754C17.0305 40.7091 17.1227 40.8271 17.237 40.9209C18.939 42.3171 20.9429 43.348 23.2329 44.0098C23.3876 44.103 23.5648 44.1523 23.7454 44.1524H23.7524C25.8048 44.6659 27.9143 44.9161 30.03 44.8969C30.4737 44.8969 30.9255 44.8875 31.3829 44.8685C36.8141 45.0839 41.4791 43.7228 45.2481 40.8229C45.3695 40.7295 45.4679 40.6094 45.5355 40.472C45.6032 40.3346 45.6384 40.1834 45.6384 40.0303V36.4216C46.8302 36.5697 48.03 36.6443 49.231 36.6451C50.6069 36.6481 51.9809 36.5428 53.3402 36.3303C56.6107 35.81 59.393 34.6814 61.6095 32.9759C61.7309 32.8825 61.8292 32.7625 61.8969 32.6251C61.9645 32.4877 61.9997 32.3365 61.9997 32.1834V25.7485C61.9968 23.2817 61.0155 20.9169 59.2712 19.1726C57.5269 17.4284 55.162 16.4473 52.6952 16.4444ZM2 30.5551H5.875V33.6883C4.425 33.2344 3.09737 32.611 2 31.7978V30.5551ZM7.875 34.1951V24.7433C7.875 24.478 7.76964 24.2237 7.58211 24.0361C7.39457 23.8486 7.14022 23.7433 6.875 23.7433C6.60978 23.7433 6.35543 23.8486 6.16789 24.0361C5.98036 24.2237 5.875 24.478 5.875 24.7433V28.5558H2V25.7485C2.00205 23.8118 2.77232 21.955 4.14178 20.5855C5.51124 19.2161 7.36804 18.4458 9.30475 18.4438H15.9857C17.4663 18.4442 18.9118 18.8946 20.1305 19.7353C21.3492 20.576 22.2836 21.7672 22.8099 23.1511C21.0308 24.0166 19.5308 25.3645 18.4808 27.0413C17.4307 28.718 16.873 30.6561 16.8712 32.6345V34.297C13.8903 34.7978 10.8439 34.7633 7.875 34.1951ZM18.8719 38.0451H22.7469V41.7485C21.3559 41.2563 20.049 40.5531 18.8719 39.6635V38.0451ZM31.424 42.8679C31.396 42.8669 31.3681 42.8669 31.3404 42.8679C28.9201 42.9711 26.7221 42.7936 24.7462 42.3355V32.8173C24.7462 32.552 24.6409 32.2977 24.4534 32.1101C24.2658 31.9226 24.0115 31.8173 23.7462 31.8173C23.481 31.8173 23.2267 31.9226 23.0391 32.1101C22.8516 32.2977 22.7462 32.552 22.7462 32.8173V36.0453H18.8712V32.6351C18.8734 30.9078 19.3983 29.2215 20.3769 27.7981C21.3555 26.3747 22.742 25.2807 24.354 24.6601C24.3902 24.6483 24.4256 24.6343 24.4601 24.6183C25.4062 24.2685 26.407 24.0899 27.4157 24.0908H35.094C35.9556 24.09 36.8124 24.2201 37.635 24.4765C37.6697 24.4905 37.7052 24.5026 37.7412 24.5128H37.7437C39.4563 25.0735 40.9481 26.1606 42.0066 27.619C43.0651 29.0773 43.6362 30.8326 43.6386 32.6346V36.0448H39.7636V32.8173C39.7636 32.552 39.6583 32.2977 39.4707 32.1101C39.2832 31.9226 39.0288 31.8173 38.7636 31.8173C38.4984 31.8173 38.2441 31.9226 38.0565 32.1101C37.869 32.2977 37.7636 32.552 37.7636 32.8173V42.258C35.6911 42.7686 33.5552 42.9741 31.4234 42.868L31.424 42.8679ZM39.7647 41.6231V38.0453H43.6397V39.5286C42.4451 40.3934 41.1421 41.0977 39.7641 41.6235L39.7647 41.6231ZM45.6397 34.4045V32.6351C45.6375 30.5762 45.0333 28.5628 43.9016 26.8427C42.7699 25.1227 41.16 23.7711 39.27 22.9541C39.8258 21.6221 40.7624 20.4837 41.9622 19.6815C43.1621 18.8793 44.572 18.4489 46.0154 18.4444H52.6964C54.6328 18.4467 56.4892 19.217 57.8584 20.5863C59.2276 21.9556 59.9978 23.8121 60 25.7485V28.5545H56.125V24.742C56.125 24.4768 56.0196 24.2224 55.8321 24.0349C55.6446 23.8474 55.3902 23.742 55.125 23.742C54.8598 23.742 54.6054 23.8474 54.4179 24.0349C54.2304 24.2224 54.125 24.4768 54.125 24.742V34.142C51.5361 34.7038 48.6319 34.8045 45.6386 34.4046L45.6397 34.4045ZM56.1272 33.5968V30.5551H60.0022V31.6786C58.8108 32.5042 57.5047 33.1505 56.1256 33.5969L56.1272 33.5968ZM49.3564 15.3093C50.8702 15.3089 52.3499 14.8596 53.6084 14.0183C54.867 13.177 55.8478 11.9815 56.4268 10.5828C57.0059 9.18407 57.1572 7.64507 56.8617 6.16038C56.5662 4.67568 55.837 3.31195 54.7665 2.24163C53.6959 1.17131 52.332 0.442453 50.8473 0.147227C49.3625 -0.148 47.8236 0.00365746 46.425 0.583025C45.0264 1.16239 43.831 2.14345 42.99 3.40215C42.149 4.66086 41.7 6.14068 41.7 7.6545C41.7021 9.684 42.5093 11.6298 43.9444 13.0648C45.3795 14.4998 47.3253 15.307 49.3547 15.309L49.3564 15.3093ZM49.3564 2.00038C50.4747 2.00075 51.5677 2.33271 52.4974 2.95427C53.427 3.57584 54.1515 4.4591 54.5791 5.49238C55.0068 6.52566 55.1185 7.66255 54.9001 8.7593C54.6817 9.85606 54.1429 10.8634 53.352 11.654C52.5611 12.4446 51.5536 12.9829 50.4567 13.2009C49.3599 13.4189 48.223 13.3068 47.1899 12.8787C46.1568 12.4506 45.2738 11.7258 44.6526 10.7959C44.0314 9.866 43.6999 8.77279 43.7 7.6545C43.7017 6.15533 44.298 4.71806 45.3582 3.65803C46.4183 2.59799 47.8556 2.00175 49.3547 2.00013L49.3564 2.00038Z" fill="#009FE8"/>
</svg>
