<svg width="54" height="47" viewBox="0 0 54 47" fill="none" xmlns="http://www.w3.org/2000/svg">
<path fill-rule="evenodd" clip-rule="evenodd" d="M43.3994 11.0809C39.8323 11.0809 36.9355 13.9776 36.9355 17.5447C36.9355 21.1118 39.8323 24.0085 43.3994 24.0085C46.9665 24.0085 49.8632 21.1118 49.8632 17.5447C49.8632 13.9776 46.9665 11.0809 43.3994 11.0809ZM43.3994 12.9277C45.948 12.9277 48.0164 14.9961 48.0164 17.5447C48.0164 20.0933 45.948 22.1617 43.3994 22.1617C40.8508 22.1617 38.7824 20.0933 38.7824 17.5447C38.7824 14.9961 40.8508 12.9277 43.3994 12.9277Z" fill="#009FE8"/>
<path fill-rule="evenodd" clip-rule="evenodd" d="M10.1573 11.0809C6.59015 11.0809 3.69343 13.9776 3.69343 17.5447C3.69343 21.1118 6.59015 24.0085 10.1573 24.0085C13.7244 24.0085 16.6211 21.1118 16.6211 17.5447C16.6211 13.9776 13.7244 11.0809 10.1573 11.0809ZM10.1573 12.9277C12.7059 12.9277 14.7743 14.9961 14.7743 17.5447C14.7743 20.0933 12.7059 22.1617 10.1573 22.1617C7.60867 22.1617 5.54024 20.0933 5.54024 17.5447C5.54024 14.9961 7.60867 12.9277 10.1573 12.9277Z" fill="#009FE8"/>
<path fill-rule="evenodd" clip-rule="evenodd" d="M22.1617 22.6077V24.2661L16.7635 26.0659C16.3165 26.2145 15.8881 26.3992 15.4818 26.6162C14.4236 26.1277 13.2453 25.8553 12.0043 25.8553C10.7881 25.8553 9.52676 25.8553 8.31064 25.8553C3.7204 25.8553 0 29.5757 0 34.166V39.7064C0 40.4414 0.291822 41.146 0.811698 41.6649C1.33065 42.1848 2.03518 42.4766 2.77021 42.4766H11.0809V43.4C11.0809 44.135 11.3727 44.8396 11.8925 45.3585C12.4115 45.8784 13.116 46.1702 13.8511 46.1702H39.7064C40.4414 46.1702 41.1459 45.8784 41.6649 45.3585C42.1848 44.8396 42.4766 44.135 42.4766 43.4V42.4766H50.7872C51.5223 42.4766 52.2268 42.1848 52.7457 41.6649C53.2656 41.146 53.5574 40.4414 53.5574 39.7064V34.166C53.5574 29.5757 49.837 25.8553 45.2468 25.8553C44.0307 25.8553 42.7693 25.8553 41.5532 25.8553C40.3121 25.8553 39.1339 26.1277 38.0757 26.6162C37.6694 26.3992 37.2409 26.2145 36.794 26.0659L31.3957 24.2661V22.6086C33.623 21.1183 35.0894 18.5798 35.0894 15.6979V14.7662C35.5603 14.7228 36.0035 14.5168 36.3415 14.1798C36.722 13.7984 36.9362 13.2813 36.9362 12.743V10.1574C36.9362 7.46388 35.866 4.88019 33.961 2.97521C32.056 1.07023 29.4723 0 26.7787 0C24.0852 0 21.5015 1.07023 19.5965 2.97521C17.6915 4.88019 16.6213 7.46388 16.6213 10.1574V12.743C16.6213 13.2813 16.8355 13.7984 17.2159 14.1798C17.5539 14.5168 17.9971 14.7228 18.4681 14.7662V15.6979C18.4681 17.902 19.3435 20.0157 20.9022 21.5744C21.29 21.9622 21.712 22.3076 22.1617 22.6077ZM18.4681 44.3234H25.0529L22.3169 40.2189C22.1904 40.0296 22.1386 39.8006 22.1709 39.5762L23.9522 27.1056L22.8358 25.9883L17.3471 27.8176C14.708 28.6976 12.9277 31.1677 12.9277 33.9499V43.4C12.9277 43.6447 13.0246 43.8802 13.1982 44.0528C13.3709 44.2264 13.6064 44.3234 13.8511 44.3234H16.6213V34.166C16.6213 33.6562 17.035 33.2426 17.5447 33.2426C18.0544 33.2426 18.4681 33.6562 18.4681 34.166V44.3234ZM36.9362 44.3234H39.7064C39.9511 44.3234 40.1865 44.2264 40.3592 44.0528C40.5328 43.8802 40.6298 43.6447 40.6298 43.4V33.9499C40.6298 31.1677 38.8495 28.6976 36.2104 27.8176L30.7217 25.9883L29.6025 27.1075L31.3219 39.5799C31.3523 39.8015 31.3015 40.0259 31.1797 40.2124L28.487 44.3234H35.0894V34.166C35.0894 33.6562 35.503 33.2426 36.0128 33.2426C36.5225 33.2426 36.9362 33.6562 36.9362 34.166V44.3234ZM25.5847 28.7373L24.0491 39.4875L26.7722 43.5717L29.4455 39.4894L27.9644 28.7456L27.4315 29.2784C27.0714 29.6394 26.486 29.6394 26.1259 29.2784L25.5847 28.7373ZM7.38723 40.6298H11.0809V33.9499C11.0809 31.6174 12.0541 29.4557 13.6729 27.9191C13.141 27.7778 12.5814 27.7021 12.0043 27.7021H8.31064C4.74076 27.7021 1.84681 30.5961 1.84681 34.166V39.7064C1.84681 39.9511 1.94379 40.1866 2.11739 40.3592C2.29007 40.5328 2.52551 40.6298 2.77021 40.6298H5.54043V34.166C5.54043 33.6562 5.95411 33.2426 6.46383 33.2426C6.97355 33.2426 7.38723 33.6562 7.38723 34.166V40.6298ZM48.017 40.6298H50.7872C51.0319 40.6298 51.2674 40.5328 51.4401 40.3592C51.6137 40.1866 51.7106 39.9511 51.7106 39.7064V34.166C51.7106 30.5961 48.8167 27.7021 45.2468 27.7021H41.5532C40.9761 27.7021 40.4165 27.7778 39.8846 27.9191C41.5033 29.4557 42.4766 31.6174 42.4766 33.9499V40.6298H46.1702V34.166C46.1702 33.6562 46.5839 33.2426 47.0936 33.2426C47.6033 33.2426 48.017 33.6562 48.017 34.166V40.6298ZM24.0085 23.533V24.5496L26.7787 27.3198L29.5489 24.5496V23.5357C28.6819 23.8423 27.7501 24.0085 26.7787 24.0085C25.8258 24.0085 24.8904 23.8451 24.0085 23.533ZM33.2426 14.72C30.9359 14.479 28.7696 13.454 27.1149 11.7993L26.7787 11.4631L26.4426 11.7993C24.7878 13.454 22.6216 14.479 20.3149 14.72V15.6979C20.3149 17.4126 20.9954 19.0563 22.2079 20.2687C23.4203 21.4811 25.064 22.1617 26.7787 22.1617C30.3486 22.1617 33.2426 19.2678 33.2426 15.6979V14.72ZM26.7787 1.84681C24.5746 1.84681 22.4609 2.7222 20.9022 4.2809C19.3435 5.83961 18.4681 7.95328 18.4681 10.1574V12.743C18.4681 12.7919 18.4875 12.839 18.5226 12.8732C18.5568 12.9083 18.6038 12.9277 18.6528 12.9277H19.2603C21.4645 12.9277 23.5782 12.0523 25.1369 10.4936C25.6992 9.93029 26.1259 9.5046 26.1259 9.5046C26.486 9.14355 27.0714 9.14355 27.4315 9.5046C27.4315 9.5046 27.8582 9.93029 28.4205 10.4936C29.9793 12.0523 32.0929 12.9277 34.2971 12.9277H34.9047C34.9536 12.9277 35.0007 12.9083 35.0349 12.8732C35.07 12.839 35.0894 12.7919 35.0894 12.743V10.1574C35.0894 7.95328 34.214 5.83961 32.6553 4.2809C31.0966 2.7222 28.9829 1.84681 26.7787 1.84681Z" fill="#009FE8"/>
</svg>
