<svg width="64" height="64" viewBox="0 0 64 64" fill="none" xmlns="http://www.w3.org/2000/svg">
<g clip-path="url(#clip0_911_937)">
<path d="M63.0625 62.125H59.992V49.239C60.6056 48.6995 60.994 47.9096 60.994 47.0302C60.994 45.4082 59.6744 44.0887 58.0525 44.0887H51.9191L50.972 28.9355C50.9411 28.4414 50.5314 28.0565 50.0364 28.0565H46.0283C45.5333 28.0565 45.1235 28.4414 45.0926 28.9355L44.1455 44.0887H41.8989L40.9518 28.9355C40.9209 28.4414 40.5111 28.0565 40.0161 28.0565H36.0081C35.5131 28.0565 35.1034 28.4414 35.0725 28.9355L34.1254 44.0887H31.8787L30.9316 28.9355C30.9008 28.4414 30.491 28.0565 29.996 28.0565H25.988C25.493 28.0565 25.0833 28.4414 25.0524 28.9355L24.1052 44.0887H21.494L20.9132 17.951C20.902 17.4415 20.4856 17.0344 19.976 17.0344H13.9639C13.4542 17.0344 13.0379 17.4415 13.0266 17.951L12.3567 48.0969H4.9455C3.3235 48.0969 2.004 49.4165 2.004 51.0384C2.004 51.9177 2.39237 52.7076 3.006 53.2471V62.125H0.9375C0.41975 62.125 0 62.5447 0 63.0625C0 63.5802 0.41975 64 0.9375 64H63.0625C63.5802 64 64 63.5802 64 63.0625C64 62.5447 63.5802 62.125 63.0625 62.125ZM12.2674 52.105H8.954C8.43625 52.105 8.0165 52.5247 8.0165 53.0425C8.0165 53.5602 8.43625 53.98 8.954 53.98H12.2257L12.0448 62.125H4.881V53.9782C4.9025 53.9787 4.92387 53.9799 4.9455 53.9799C5.46325 53.9799 5.883 53.5601 5.883 53.0424C5.883 52.5246 5.46325 52.1049 4.9455 52.1049C4.35738 52.1049 3.879 51.6264 3.879 51.0384C3.879 50.4502 4.3575 49.9719 4.9455 49.9719H12.3147L12.2674 52.105ZM46.9089 29.9315H49.1555L50.0404 44.0887H46.0241L46.9089 29.9315ZM36.8887 29.9315H39.1354L40.0202 44.0887H36.004L36.8887 29.9315ZM26.8686 29.9315H29.1152L30 44.0887H25.9837L26.8686 29.9315ZM16.0324 62.125H13.9204L14.8805 18.9092H19.0589L19.6185 44.0887H17.9719C16.3499 44.0887 15.0302 45.4084 15.0302 47.0302C15.0302 47.9096 15.4186 48.6995 16.0324 49.239V62.125ZM58.0525 48.0967H56.0485C55.5308 48.0967 55.111 48.5165 55.111 49.0342C55.111 49.552 55.5308 49.9717 56.0485 49.9717H58.0525C58.0741 49.9717 58.0955 49.9705 58.117 49.9701V62.125H17.9072V49.9701C17.9287 49.9706 17.9501 49.9717 17.9718 49.9717H52.0411C52.5589 49.9717 52.9786 49.552 52.9786 49.0342C52.9786 48.5165 52.5589 48.0967 52.0411 48.0967H17.9718C17.3836 48.0967 16.9051 47.6182 16.9051 47.0302C16.9051 46.4422 17.3836 45.9637 17.9718 45.9637H58.0524C58.6405 45.9637 59.119 46.4421 59.119 47.0302C59.119 47.6184 58.6405 48.0967 58.0525 48.0967Z" fill="#009FE8"/>
<path d="M52.0395 0C49.2153 0 46.5228 0.985625 44.3704 2.79175C42.8252 1.63225 40.9524 1.002 39.0133 1.002C36.6593 1.002 34.412 1.93138 32.7417 3.5745C31.8758 3.20113 30.9392 3.006 29.9952 3.006C27.2079 3.006 24.7233 4.67488 23.6328 7.1725C23.2565 7.06713 22.8713 7.014 22.48 7.014C20.5434 7.014 18.878 8.27338 18.2832 10.0375C18.1795 10.026 18.0753 10.0201 17.9709 10.0201C16.3489 10.0201 15.0293 11.3398 15.0293 12.9616C15.0294 13.4795 15.4492 13.8993 15.9669 13.8993C16.4847 13.8993 16.9044 13.4795 16.9044 12.9618C16.9044 12.3736 17.3829 11.8953 17.971 11.8953C18.157 11.8953 18.3394 11.9479 18.5129 12.0518C18.7939 12.2199 19.1422 12.2291 19.4318 12.0765C19.7213 11.9237 19.9103 11.631 19.93 11.3041C20.0122 9.95 21.1323 8.88925 22.4799 8.88925C22.906 8.88925 23.3267 9.00437 23.7299 9.2315C23.9825 9.37387 24.2872 9.39112 24.5545 9.27825C24.8219 9.16537 25.0218 8.93513 25.0962 8.65462C25.6848 6.43287 27.6993 4.88112 29.995 4.88112C30.865 4.88112 31.7269 5.10862 32.4874 5.53888C32.8762 5.75887 33.3665 5.674 33.6585 5.33575C35.008 3.77325 36.9598 2.87713 39.0132 2.87713C40.7688 2.87713 42.4568 3.5325 43.766 4.72237C44.1314 5.05437 44.6917 5.04625 45.0472 4.70363C46.9397 2.8795 49.4229 1.875 52.0395 1.875C57.6003 1.875 62.1242 6.399 62.1242 11.9596C62.1242 17.5203 57.6003 22.0443 52.0395 22.0443C48.3477 22.0443 44.9538 20.0285 43.1824 16.7836C42.9462 16.3509 42.415 16.1751 41.9673 16.3814C41.027 16.8145 40.0332 17.0341 39.0133 17.0341C36.9599 17.0341 35.0082 16.138 33.6587 14.5755C33.3667 14.2374 32.8764 14.1524 32.4875 14.3724C31.727 14.8026 30.8652 15.0301 29.9952 15.0301C28.4109 15.0301 26.9449 14.3048 25.9733 13.04C25.7968 12.8104 25.5242 12.6751 25.2345 12.6736C25.2329 12.6736 25.2314 12.6736 25.2299 12.6736C24.942 12.6736 24.6699 12.806 24.4922 13.0326C23.9962 13.6652 23.2628 14.028 22.48 14.028C21.9623 14.028 21.5425 14.4478 21.5425 14.9655C21.5425 15.4832 21.9623 15.903 22.48 15.903C23.4737 15.903 24.4187 15.571 25.1887 14.9688C26.475 16.2097 28.1778 16.905 29.9952 16.905C30.9392 16.905 31.8758 16.7099 32.7417 16.3366C34.412 17.9797 36.6594 18.9091 39.0133 18.9091C40.0237 18.9091 41.0129 18.7395 41.9642 18.4041C44.1547 21.826 47.9422 23.9193 52.0395 23.9193C58.6342 23.9193 63.9992 18.5541 63.9992 11.9596C63.9992 5.36513 58.6342 0 52.0395 0Z" fill="#009FE8"/>
<path d="M23.9844 52.1049C23.4666 52.1049 23.0469 52.5246 23.0469 53.0424V55.0464C23.0469 55.5641 23.4666 55.9839 23.9844 55.9839C24.5021 55.9839 24.9219 55.5641 24.9219 55.0464V53.0424C24.9219 52.5246 24.5021 52.1049 23.9844 52.1049Z" fill="#009FE8"/>
<path d="M27.9922 52.1049C27.4744 52.1049 27.0547 52.5246 27.0547 53.0424V55.0464C27.0547 55.5641 27.4744 55.9839 27.9922 55.9839C28.5099 55.9839 28.9297 55.5641 28.9297 55.0464V53.0424C28.9297 52.5246 28.5099 52.1049 27.9922 52.1049Z" fill="#009FE8"/>
<path d="M32 52.1049C31.4822 52.1049 31.0625 52.5246 31.0625 53.0424V55.0464C31.0625 55.5641 31.4822 55.9839 32 55.9839C32.5178 55.9839 32.9375 55.5641 32.9375 55.0464V53.0424C32.9375 52.5246 32.5178 52.1049 32 52.1049Z" fill="#009FE8"/>
<path d="M36.0078 52.1049C35.4901 52.1049 35.0703 52.5246 35.0703 53.0424V55.0464C35.0703 55.5641 35.4901 55.9839 36.0078 55.9839C36.5256 55.9839 36.9453 55.5641 36.9453 55.0464V53.0424C36.9453 52.5246 36.5257 52.1049 36.0078 52.1049Z" fill="#009FE8"/>
<path d="M40.0156 52.1049C39.4979 52.1049 39.0781 52.5246 39.0781 53.0424V55.0464C39.0781 55.5641 39.4979 55.9839 40.0156 55.9839C40.5334 55.9839 40.9531 55.5641 40.9531 55.0464V53.0424C40.9531 52.5246 40.5334 52.1049 40.0156 52.1049Z" fill="#009FE8"/>
<path d="M44.0234 52.1049C43.5057 52.1049 43.0859 52.5246 43.0859 53.0424V55.0464C43.0859 55.5641 43.5057 55.9839 44.0234 55.9839C44.5412 55.9839 44.9609 55.5641 44.9609 55.0464V53.0424C44.9609 52.5246 44.5412 52.1049 44.0234 52.1049Z" fill="#009FE8"/>
<path d="M48.0332 52.1049C47.5155 52.1049 47.0957 52.5246 47.0957 53.0424V55.0464C47.0957 55.5641 47.5155 55.9839 48.0332 55.9839C48.551 55.9839 48.9707 55.5641 48.9707 55.0464V53.0424C48.9707 52.5246 48.551 52.1049 48.0332 52.1049Z" fill="#009FE8"/>
<path d="M52.041 52.1049C51.5233 52.1049 51.1035 52.5246 51.1035 53.0424V55.0464C51.1035 55.5641 51.5233 55.9839 52.041 55.9839C52.5588 55.9839 52.9785 55.5641 52.9785 55.0464V53.0424C52.9785 52.5246 52.5588 52.1049 52.041 52.1049Z" fill="#009FE8"/>
</g>
<defs>
<clipPath id="clip0_911_937">
<rect width="64" height="64" fill="white"/>
</clipPath>
</defs>
</svg>
