<svg width="46" height="46" viewBox="0 0 46 46" fill="none" xmlns="http://www.w3.org/2000/svg">
<path d="M22.7183 45.4365C10.1915 45.4365 0 35.245 0 22.7183C0 16.3923 2.59925 10.6615 6.78575 6.53825C6.8255 6.46925 6.87425 6.40375 6.93225 6.34375C7.00875 6.26425 7.09525 6.20025 7.188 6.1515C11.2535 2.33825 16.718 0 22.7183 0C35.245 0 45.4365 10.1912 45.4365 22.7183C45.4365 35.2453 35.245 45.4365 22.7183 45.4365ZM23.7183 33.3517V43.3425C26.0695 42.8995 28.289 40.9007 30.0532 37.6035C30.4635 36.837 30.8382 36.02 31.1755 35.1608C28.8445 34.1043 26.3228 33.4867 23.7183 33.3517ZM14.2345 35.093C14.5785 35.977 14.9623 36.8167 15.3833 37.6035C17.1475 40.9007 19.367 42.8995 21.7183 43.3425V33.3435C19.1087 33.4563 16.5775 34.0542 14.2345 35.093ZM32.9622 36.078C32.6157 36.943 32.2332 37.7682 31.8167 38.547C30.9872 40.0975 30.0535 41.405 29.0413 42.45C31.7133 41.5915 34.1507 40.2048 36.2295 38.4125C35.2098 37.5238 34.1152 36.7435 32.9622 36.078ZM9.1175 38.335C11.2157 40.1647 13.6847 41.5798 16.3955 42.4502C15.3833 41.405 14.4495 40.0977 13.62 38.5472C13.19 37.7435 12.7968 36.8907 12.4415 35.9955C11.2682 36.6592 10.1548 37.4415 9.1175 38.335ZM33.6488 34.168C35.0822 34.965 36.436 35.9223 37.6855 37.0298C41.0305 33.5327 43.1662 28.8682 43.4125 23.7183H35.3265C35.2388 27.4458 34.6603 31.0152 33.6488 34.168ZM2.024 23.7183C2.268 28.8265 4.371 33.4562 7.66925 36.9437C8.936 35.834 10.3082 34.8775 11.7612 34.0845C10.7662 30.9522 10.1973 27.413 10.11 23.718H2.024V23.7183ZM23.7183 31.3493C26.551 31.483 29.2963 32.137 31.838 33.265C32.73 30.382 33.2422 27.1262 33.326 23.718H23.7183V31.3493ZM12.1105 23.7183C12.1938 27.0995 12.6985 30.3305 13.5775 33.1968C16.1295 32.0875 18.8827 31.4535 21.7183 31.3415V23.7183H12.1105ZM35.3268 21.7183H43.4128C43.1678 16.5888 41.0487 11.9423 37.7267 8.44975C36.469 9.558 35.1055 10.515 33.6623 11.31C34.6652 14.4525 35.239 18.007 35.3268 21.7183ZM23.7183 21.7183H33.326C33.2425 18.3232 32.734 15.0798 31.8485 12.2052C29.301 13.3237 26.5515 13.9682 23.7183 14.0912V21.7183ZM12.1105 21.7183H21.7183V14.0912C18.883 13.9685 16.1345 13.3248 13.5877 12.2063C12.7025 15.0808 12.194 18.3237 12.1105 21.7183ZM2.024 21.7183H10.11C10.1975 18.0072 10.7712 14.453 11.7743 11.3108C10.331 10.5158 8.968 9.55875 7.71 8.44975C4.38775 11.9423 2.269 16.5888 2.024 21.7183ZM14.2475 10.3102C16.5837 11.3575 19.1105 11.9653 21.7183 12.089V2.094C19.367 2.537 17.1475 4.53575 15.3833 7.833C14.9675 8.61 14.5885 9.43825 14.2475 10.3102ZM23.7183 2.094V12.089C26.3245 11.965 28.8515 11.357 31.1885 10.3092C30.8477 9.4375 30.4688 8.60975 30.053 7.833C28.289 4.53575 26.0695 2.537 23.7183 2.094ZM9.162 7.06275C10.1908 7.9545 11.2943 8.7355 12.4575 9.40025C12.8085 8.51975 13.1965 7.68075 13.6198 6.88925C14.4493 5.33875 15.383 4.0315 16.3953 2.9865C13.7043 3.85075 11.2505 5.25225 9.162 7.06275ZM29.0413 2.9865C30.0535 4.0315 30.9872 5.339 31.8167 6.88925C32.24 7.6805 32.6278 8.51925 32.9788 9.3995C34.1423 8.73475 35.2458 7.954 36.2745 7.06275C34.186 5.252 31.7323 3.85075 29.0413 2.9865Z" fill="#009FE8"/>
</svg>
