<svg width="53" height="64" viewBox="0 0 53 64" fill="none" xmlns="http://www.w3.org/2000/svg">
<path d="M49.5216 9.74548L45.288 8.37423V7.31323C45.288 5.25773 43.6156 3.58535 41.5601 3.58535H30.5135L20.0146 0.184355C18.0532 -0.454395 15.9572 0.61998 15.3186 2.5836L14.9954 3.58548H10.5422C8.48675 3.58548 6.81437 5.25785 6.81437 7.31335V28.8296L0.178996 49.3096C-0.448629 51.2605 0.627121 53.3656 2.57887 54.0026L6.8145 55.3747V56.431C6.8145 58.4865 8.48687 60.1589 10.5424 60.1589H21.5749L32.088 63.5645C34.0476 64.1962 36.1507 63.1196 36.7814 61.1662L37.1095 60.1589H41.5604C43.6159 60.1589 45.2882 58.4865 45.2882 56.431V34.9106L51.9205 14.4401C52.5657 12.4545 51.4622 10.3685 49.5216 9.74548ZM6.81437 53.9787L2.98987 52.7397C1.7325 52.3292 1.03875 50.9731 1.44275 49.7177L6.81437 33.1376V53.9787ZM16.5824 2.99273C17.0006 1.70685 18.363 1.04398 19.6034 1.44723L26.2041 3.58548H16.3912L16.5824 2.99273ZM35.5174 60.757C35.1115 62.0156 33.7536 62.7071 32.4964 62.3009L25.884 60.1587H35.7124L35.5174 60.757ZM43.96 56.4309C43.96 57.754 42.8836 58.8307 41.5601 58.8307H10.5422C9.21875 58.8307 8.14237 57.754 8.14237 56.4309V7.31323C8.14237 5.99011 9.21875 4.91335 10.5422 4.91335H41.5601C42.8836 4.91335 43.96 5.99011 43.96 7.31323V56.4309ZM50.657 14.0304L45.288 30.6026V9.7701L49.1137 11.0092C50.3772 11.4151 51.069 12.763 50.657 14.0304Z" fill="#009FE8"/>
<path d="M16.371 44.8246C16.004 44.8246 15.707 45.1218 15.707 45.4886V53.324C15.707 53.6907 16.004 53.988 16.371 53.988C16.738 53.988 17.035 53.6907 17.035 53.324V45.4886C17.035 45.1218 16.738 44.8246 16.371 44.8246Z" fill="#009FE8"/>
<path d="M21.6103 47.6491C21.2433 47.6491 20.9463 47.9464 20.9463 48.3131V53.3239C20.9463 53.6906 21.2433 53.9879 21.6103 53.9879C21.9773 53.9879 22.2743 53.6906 22.2743 53.3239V48.3131C22.2743 47.9465 21.9773 47.6491 21.6103 47.6491Z" fill="#009FE8"/>
<path d="M26.8495 42.488C26.4825 42.488 26.1855 42.7852 26.1855 43.152V53.324C26.1855 53.6907 26.4825 53.988 26.8495 53.988C27.2165 53.988 27.5135 53.6907 27.5135 53.324V43.152C27.5135 42.7852 27.2165 42.488 26.8495 42.488Z" fill="#009FE8"/>
<path d="M32.0888 44.8246C31.7218 44.8246 31.4248 45.1218 31.4248 45.4886V53.324C31.4248 53.6907 31.7218 53.988 32.0888 53.988C32.4558 53.988 32.7528 53.6907 32.7528 53.324V45.4886C32.7528 45.1218 32.4558 44.8246 32.0888 44.8246Z" fill="#009FE8"/>
<path d="M37.3281 39.7738C36.9611 39.7738 36.6641 40.0711 36.6641 40.4378V53.3238C36.6641 53.6906 36.9611 53.9878 37.3281 53.9878C37.6951 53.9878 37.9921 53.6906 37.9921 53.3238V40.4378C37.9921 40.0712 37.6952 39.7738 37.3281 39.7738Z" fill="#009FE8"/>
<path d="M13.5859 30.9384H19.9574C20.3244 30.9384 20.6214 30.6411 20.6214 30.2744C20.6214 29.9076 20.3244 29.6104 19.9574 29.6104H13.5859C13.2189 29.6104 12.9219 29.9076 12.9219 30.2744C12.9219 30.6411 13.2189 30.9384 13.5859 30.9384Z" fill="#009FE8"/>
<path d="M28.1076 33.8666C28.1076 33.4998 27.8106 33.2026 27.4436 33.2026H13.5859C13.2189 33.2026 12.9219 33.4998 12.9219 33.8666C12.9219 34.2333 13.2189 34.5306 13.5859 34.5306H27.4436C27.8106 34.5306 28.1076 34.2333 28.1076 33.8666Z" fill="#009FE8"/>
<path d="M19.9574 26.1724C23.8364 26.1724 26.9923 23.0165 26.9923 19.1371C26.9923 18.7704 26.6953 18.4731 26.3283 18.4731H20.6214V12.7662C20.6214 12.3995 20.3244 12.1022 19.9574 12.1022C16.0778 12.1022 12.9219 15.2581 12.9219 19.1371C12.9219 23.0164 16.0779 26.1724 19.9574 26.1724ZM19.2934 13.4685V19.1371C19.2934 19.5039 19.5904 19.8011 19.9574 19.8011H25.626C25.296 22.6364 22.8799 24.8444 19.9574 24.8444C16.8105 24.8444 14.2499 22.284 14.2499 19.1371C14.2499 16.215 16.4578 13.7986 19.2934 13.4685Z" fill="#009FE8"/>
<path d="M22.3046 17.4547H28.6755C29.0425 17.4547 29.3395 17.1575 29.3395 16.7907C29.3395 12.9115 26.1836 9.75549 22.3046 9.75549C21.9376 9.75549 21.6406 10.0527 21.6406 10.4195V16.7907C21.6406 17.1575 21.9376 17.4547 22.3046 17.4547ZM22.9686 11.1219C25.5858 11.4266 27.6685 13.5094 27.9733 16.1269H22.9686V11.1219Z" fill="#009FE8"/>
<path d="M37.6147 32.7001L35.1882 33.1093C34.1057 33.2913 33.74 34.6623 34.5897 35.359L35.3622 35.992L31.9155 40.1893L27.154 37.7031C26.8927 37.5663 26.5718 37.6181 26.3675 37.8321L21.4862 42.924L16.6968 40.2103C16.3764 40.029 15.9732 40.1419 15.7915 40.4605C15.6107 40.7799 15.7228 41.1848 16.0418 41.3658L21.2805 44.334C21.5435 44.483 21.8764 44.436 22.0872 44.2156L26.9809 39.1109L31.7787 41.6158C32.0568 41.7616 32.3999 41.6926 32.5989 41.4488L36.389 36.8334L37.0907 37.4083C37.938 38.1039 39.2137 37.4778 39.1799 36.3811L39.106 33.9229C39.0829 33.1441 38.3763 32.5724 37.6147 32.7001ZM35.5157 34.4006L37.7807 34.019L37.8785 36.3369L35.5157 34.4006Z" fill="#009FE8"/>
</svg>
