<svg width="67" height="67" viewBox="0 0 67 67" fill="none" xmlns="http://www.w3.org/2000/svg">
<g clip-path="url(#clip0_930_236)">
<path d="M65.4491 64.4763H62.2624V51.1026C62.8993 50.5427 63.3023 49.7229 63.3023 48.8103C63.3023 47.1269 61.9328 45.7575 60.2495 45.7575H53.884L52.9011 30.0307C52.869 29.5179 52.4438 29.1185 51.93 29.1185H47.7702C47.2565 29.1185 46.8312 29.5179 46.7992 30.0307L45.8162 45.7575H43.4846L42.5016 30.0307C42.4695 29.5179 42.0443 29.1185 41.5306 29.1185H37.3709C36.8571 29.1185 36.4319 29.5179 36.3998 30.0307L35.4169 45.7575H33.0852L32.1022 30.0307C32.0702 29.5179 31.6449 29.1185 31.1312 29.1185H26.9715C26.4578 29.1185 26.0325 29.5179 26.0005 30.0307L25.0175 45.7575H22.3075L21.7047 18.6305C21.693 18.1017 21.2609 17.6792 20.732 17.6792H14.4923C13.9634 17.6792 13.5313 18.1017 13.5196 18.6305L12.8244 49.9173H5.13266C3.44928 49.9173 2.07984 51.2868 2.07984 52.9701C2.07984 53.8828 2.48292 54.7025 3.11976 55.2624V64.4763H0.97298C0.435636 64.4763 0 64.9119 0 65.4493C0 65.9866 0.435636 66.4223 0.97298 66.4223H65.4491C65.9865 66.4223 66.4221 65.9866 66.4221 65.4493C66.4221 64.9119 65.9865 64.4763 65.4491 64.4763ZM12.7316 54.0771H9.29287C8.75552 54.0771 8.31989 54.5127 8.31989 55.0501C8.31989 55.5874 8.75552 56.023 9.29287 56.023H12.6884L12.5006 64.4763H5.06572V56.0212C5.08804 56.0217 5.11022 56.0229 5.13266 56.0229C5.67001 56.0229 6.10564 55.5873 6.10564 55.0499C6.10564 54.5126 5.67001 54.077 5.13266 54.077C4.52228 54.077 4.0258 53.5803 4.0258 52.9701C4.0258 52.3597 4.52241 51.8632 5.13266 51.8632H12.7808L12.7316 54.0771ZM48.6842 31.0644H51.0158L51.9342 45.7575H47.7659L48.6842 31.0644ZM38.2848 31.0644H40.6165L41.5348 45.7575H37.3666L38.2848 31.0644ZM27.8855 31.0644H30.2171L31.1354 45.7575H26.9671L27.8855 31.0644ZM16.6391 64.4763H14.4472L15.4437 19.625H19.7802L20.361 45.7575H18.652C16.9686 45.7575 15.5991 47.127 15.5991 48.8103C15.5991 49.7229 16.0022 50.5427 16.6391 51.1026V64.4763ZM60.2495 49.9171H58.1697C57.6323 49.9171 57.1967 50.3528 57.1967 50.8901C57.1967 51.4275 57.6323 51.8631 58.1697 51.8631H60.2495C60.272 51.8631 60.2942 51.8618 60.3165 51.8614V64.4763H18.585V51.8614C18.6073 51.8619 18.6295 51.8631 18.6519 51.8631H54.0106C54.548 51.8631 54.9836 51.4275 54.9836 50.8901C54.9836 50.3528 54.548 49.9171 54.0106 49.9171H18.6519C18.0415 49.9171 17.5449 49.4205 17.5449 48.8103C17.5449 48.2 18.0415 47.7034 18.6519 47.7034H60.2494C60.8598 47.7034 61.3564 48.1999 61.3564 48.8103C61.3564 49.4207 60.8598 49.9171 60.2495 49.9171Z" fill="#009FE8"/>
<path d="M54.0086 0C51.0774 0 48.283 1.02293 46.0492 2.8974C44.4455 1.69402 42.5019 1.03992 40.4893 1.03992C38.0463 1.03992 35.714 2.00447 33.9804 3.70978C33.0817 3.32227 32.1096 3.11976 31.1299 3.11976C28.2372 3.11976 25.6585 4.8518 24.5268 7.44395C24.1363 7.33458 23.7364 7.27945 23.3304 7.27945C21.3205 7.27945 19.5921 8.58648 18.9747 10.4174C18.8671 10.4054 18.7589 10.3993 18.6506 10.3993C16.9672 10.3993 15.5977 11.7689 15.5977 13.4522C15.5978 13.9896 16.0334 14.4253 16.5708 14.4253C17.1081 14.4253 17.5437 13.9896 17.5437 13.4523C17.5437 12.8419 18.0404 12.3454 18.6507 12.3454C18.8438 12.3454 19.0331 12.4 19.2131 12.5079C19.5048 12.6823 19.8662 12.6919 20.1668 12.5335C20.4672 12.375 20.6634 12.0712 20.6839 11.7319C20.7691 10.3266 21.9316 9.22567 23.3303 9.22567C23.7725 9.22567 24.209 9.34515 24.6276 9.58087C24.8897 9.72863 25.2059 9.74654 25.4834 9.62939C25.7609 9.51224 25.9683 9.27328 26.0455 8.98216C26.6564 6.67633 28.7472 5.06585 31.1298 5.06585C32.0327 5.06585 32.9272 5.30196 33.7165 5.7485C34.12 5.97682 34.6289 5.88873 34.9319 5.53768C36.3325 3.91605 38.3581 2.98601 40.4892 2.98601C42.3113 2.98601 44.0632 3.66619 45.422 4.90109C45.8012 5.24566 46.3826 5.23723 46.7516 4.88164C48.7157 2.98848 51.2929 1.94596 54.0086 1.94596C59.7798 1.94596 64.4749 6.64117 64.4749 12.4122C64.4749 18.1833 59.7798 22.8785 54.0086 22.8785C50.177 22.8785 46.6547 20.7865 44.8162 17.4188C44.5711 16.9697 44.0198 16.7873 43.5551 17.0013C42.5793 17.4508 41.5478 17.6788 40.4893 17.6788C38.3583 17.6788 36.3326 16.7487 34.9321 15.1271C34.629 14.7762 34.1202 14.688 33.7166 14.9163C32.9273 15.3628 32.0328 15.5989 31.1299 15.5989C29.4857 15.5989 27.9642 14.8461 26.9558 13.5335C26.7727 13.2952 26.4897 13.1548 26.1891 13.1533C26.1874 13.1533 26.1859 13.1533 26.1843 13.1533C25.8856 13.1533 25.6031 13.2906 25.4187 13.5258C24.9039 14.1824 24.1428 14.5589 23.3304 14.5589C22.793 14.5589 22.3574 14.9945 22.3574 15.5319C22.3574 16.0692 22.793 16.5049 23.3304 16.5049C24.3616 16.5049 25.3424 16.1603 26.1415 15.5352C27.4766 16.8232 29.2438 17.5448 31.1299 17.5448C32.1096 17.5448 33.0817 17.3423 33.9804 16.9549C35.714 18.6602 38.0464 19.6247 40.4893 19.6247C41.538 19.6247 42.5646 19.4487 43.5519 19.1006C45.8253 22.652 49.7561 24.8245 54.0086 24.8245C60.8528 24.8245 66.4208 19.2563 66.4208 12.4122C66.4208 5.56817 60.8528 0 54.0086 0Z" fill="#009FE8"/>
<path d="M24.889 54.0769C24.3517 54.0769 23.916 54.5125 23.916 55.0499V57.1297C23.916 57.6671 24.3517 58.1027 24.889 58.1027C25.4263 58.1027 25.862 57.6671 25.862 57.1297V55.0499C25.862 54.5125 25.4263 54.0769 24.889 54.0769Z" fill="#009FE8"/>
<path d="M29.0531 54.0769C28.5157 54.0769 28.0801 54.5125 28.0801 55.0499V57.1297C28.0801 57.6671 28.5157 58.1027 29.0531 58.1027C29.5904 58.1027 30.026 57.6671 30.026 57.1297V55.0499C30.026 54.5125 29.5904 54.0769 29.0531 54.0769Z" fill="#009FE8"/>
<path d="M33.2074 54.0769C32.67 54.0769 32.2344 54.5125 32.2344 55.0499V57.1297C32.2344 57.6671 32.67 58.1027 33.2074 58.1027C33.7447 58.1027 34.1803 57.6671 34.1803 57.1297V55.0499C34.1803 54.5125 33.7447 54.0769 33.2074 54.0769Z" fill="#009FE8"/>
<path d="M37.3714 54.0769C36.8341 54.0769 36.3984 54.5125 36.3984 55.0499V57.1297C36.3984 57.6671 36.8341 58.1027 37.3714 58.1027C37.9088 58.1027 38.3444 57.6671 38.3444 57.1297V55.0499C38.3444 54.5125 37.9089 54.0769 37.3714 54.0769Z" fill="#009FE8"/>
<path d="M41.5316 54.0769C40.9942 54.0769 40.5586 54.5125 40.5586 55.0499V57.1297C40.5586 57.6671 40.9942 58.1027 41.5316 58.1027C42.0689 58.1027 42.5046 57.6671 42.5046 57.1297V55.0499C42.5046 54.5125 42.0689 54.0769 41.5316 54.0769Z" fill="#009FE8"/>
<path d="M45.6878 54.0769C45.1505 54.0769 44.7148 54.5125 44.7148 55.0499V57.1297C44.7148 57.6671 45.1505 58.1027 45.6878 58.1027C46.2252 58.1027 46.6608 57.6671 46.6608 57.1297V55.0499C46.6608 54.5125 46.2252 54.0769 45.6878 54.0769Z" fill="#009FE8"/>
<path d="M49.8519 54.0771C49.3145 54.0771 48.8789 54.5128 48.8789 55.0501V57.13C48.8789 57.6673 49.3145 58.103 49.8519 58.103C50.3892 58.103 50.8249 57.6673 50.8249 57.13V55.0501C50.8249 54.5128 50.3892 54.0771 49.8519 54.0771Z" fill="#009FE8"/>
<path d="M54.0081 54.0769C53.4708 54.0769 53.0352 54.5125 53.0352 55.0499V57.1297C53.0352 57.6671 53.4708 58.1027 54.0081 58.1027C54.5455 58.1027 54.9811 57.6671 54.9811 57.1297V55.0499C54.9811 54.5125 54.5455 54.0769 54.0081 54.0769Z" fill="#009FE8"/>
</g>
<defs>
<clipPath id="clip0_930_236">
<rect width="66.4221" height="66.4221" fill="white"/>
</clipPath>
</defs>
</svg>
