<svg width="67" height="67" viewBox="0 0 67 67" fill="none" xmlns="http://www.w3.org/2000/svg">
<path d="M31.9399 36.241V8.99512C31.9399 8.42197 31.4752 7.95727 30.902 7.95727C23.2324 7.95727 16.0218 10.9439 10.5985 16.3673C5.17527 21.7907 2.18848 29.0013 2.18848 36.671C2.18848 44.3406 5.17527 51.5512 10.5985 56.9745C16.0218 62.3977 23.2324 65.3845 30.902 65.3845C38.5717 65.3845 45.7824 62.3977 51.2055 56.9745C51.6108 56.5692 51.6108 55.9121 51.2055 55.5068L31.9399 36.241ZM30.902 63.3088C16.2138 63.3088 4.26404 51.3591 4.26404 36.6708C4.26404 22.3304 15.6554 10.6004 29.8642 10.0528V36.6708C29.8642 36.9461 29.9735 37.2101 30.1681 37.4047L48.99 56.2266C44.0531 60.8016 37.6703 63.3088 30.902 63.3088ZM63.1906 33.3266H35.5147C35.0949 33.3266 34.7165 33.5795 34.5559 33.9672C34.3953 34.355 34.484 34.8014 34.7808 35.0982L54.3506 54.6681C54.5532 54.8707 54.8188 54.9721 55.0845 54.9721C55.3502 54.9721 55.6157 54.8707 55.8184 54.6681C61.2416 49.2448 64.2284 42.0343 64.2284 34.3646C64.2284 33.7913 63.7637 33.3266 63.1906 33.3266ZM55.0706 52.4526L38.0204 35.4023H62.133C61.8902 41.7835 59.411 47.7688 55.0706 52.4526ZM35.5147 30.7896H63.1906C63.7637 30.7896 64.2284 30.3249 64.2284 29.7518C64.2284 22.0821 61.2418 14.8714 55.8184 9.44814C50.395 4.02488 43.1844 1.03809 35.5147 1.03809C34.9416 1.03809 34.4769 1.50278 34.4769 2.07593V29.7518C34.4769 30.3249 34.9416 30.7896 35.5147 30.7896ZM36.5526 3.13376C50.4166 3.66799 61.5985 14.8499 62.1327 28.7139H36.5526V3.13376Z" fill="#009FE8"/>
</svg>
