<svg width="65" height="64" viewBox="0 0 65 64" fill="none" xmlns="http://www.w3.org/2000/svg">
<path d="M3.12625 63.2465H39.3669C39.3686 63.2465 39.3703 63.247 39.372 63.247C40.0341 63.247 39.9033 62.8917 49.6587 52.9463C50.2269 52.3579 50.5401 51.586 50.5401 50.7727V28.8324C50.5401 28.4225 50.2076 28.0903 49.7979 28.0903C49.3881 28.0903 49.0557 28.4225 49.0557 28.8324V50.7727C49.0557 51.1992 48.891 51.6046 48.5914 51.9141L40.1143 60.6711V24.1852L40.2297 24.0717C40.4529 23.8517 40.5046 23.5265 40.3894 23.2544C40.3647 23.1933 40.3213 23.1405 40.2797 23.0865C40.2633 23.066 40.2563 23.0411 40.2375 23.0221C40.2364 23.0209 40.2349 23.0206 40.2338 23.0195C40.2282 23.0138 40.2264 23.0058 40.2205 23.0003C39.9258 22.7151 39.4571 22.722 39.171 23.0162L39.0579 23.1325H21.799C22.6633 22.2328 18.674 26.3855 30.2225 14.3642H35.9036C36.3134 14.3642 36.6458 14.032 36.6458 13.622C36.6458 13.2121 36.3133 12.8798 35.9036 12.8798C28.0798 12.8793 19.3892 12.8788 12.3491 12.8784C11.545 12.8784 10.783 13.1852 10.2041 13.7424L0.227548 23.3399C0.226121 23.3412 0.225472 23.3431 0.224045 23.3444C0.100671 23.465 9.00085e-09 23.6651 9.00085e-09 23.8748V60.1204C-0.000129722 61.844 1.40213 63.2465 3.12625 63.2465ZM38.6294 61.7621H3.12625C2.22073 61.7621 1.48425 61.0255 1.48425 60.1201V24.6168H38.6293L38.6294 61.7621ZM11.2333 14.8118C11.5344 14.5221 11.9306 14.3627 12.3491 14.3627H28.1639C17.0679 25.9118 20.6302 22.2041 19.7383 23.1323H2.58411L11.2333 14.8118Z" fill="#009FE8"/>
<path d="M18.2301 33.3093L16.0518 37.7227C15.9716 37.8855 15.8159 37.9984 15.6357 38.0247L10.7654 38.7324C9.0956 38.9751 8.42787 41.0293 9.63657 42.2072L13.1607 45.6429C13.2912 45.7698 13.3506 45.9524 13.3196 46.132L12.4875 50.9825C12.2019 52.6498 13.9527 53.9126 15.4438 53.1299L19.8001 50.8397C19.9605 50.7551 20.1538 50.7551 20.3142 50.8397L24.6704 53.1299C26.1683 53.916 27.9107 52.6429 27.6263 50.9825L26.7942 46.132C26.7634 45.9524 26.8228 45.7698 26.9532 45.6428L30.4773 42.2074C31.6863 41.0302 31.0185 38.9753 29.3485 38.7325L24.4782 38.0249C24.298 37.9988 24.1423 37.8854 24.0616 37.7226L21.8837 33.3094C21.1364 31.7942 18.9774 31.7958 18.2301 33.3093ZM20.5529 33.966L22.7308 38.3797C23.028 38.9808 23.601 39.3973 24.2645 39.4937L29.1348 40.2014C29.5884 40.2674 29.7708 40.8231 29.4413 41.1441L25.9171 44.5794C25.4369 45.0473 25.2179 45.7215 25.331 46.3828L26.1631 51.2333C26.2403 51.6859 25.7678 52.0299 25.3615 51.816L21.0047 49.5256C20.4108 49.2135 19.702 49.2141 19.1091 49.5259L14.7529 51.8161C14.3463 52.0306 13.8736 51.6851 13.9508 51.2334L14.7829 46.3829C14.896 45.7217 14.677 45.0476 14.1967 44.5798L10.6726 41.1444C10.3449 40.8246 10.5239 40.2679 10.979 40.2016L15.8494 39.4939C16.5133 39.3973 17.0869 38.9807 17.3831 38.3794L19.561 33.9666C19.7641 33.5554 20.3493 33.5537 20.5529 33.966Z" fill="#009FE8"/>
<path d="M11.5077 55.5142H4.21875C3.80893 55.5142 3.47656 55.8464 3.47656 56.2564C3.47656 56.6663 3.80906 56.9985 4.21875 56.9985H11.5077C11.9175 56.9985 12.2499 56.6663 12.2499 56.2564C12.2499 55.8464 11.9175 55.5142 11.5077 55.5142Z" fill="#009FE8"/>
<path d="M11.5077 58.5801H4.21875C3.80893 58.5801 3.47656 58.9123 3.47656 59.3223C3.47656 59.7322 3.80906 60.0645 4.21875 60.0645H11.5077C11.9175 60.0645 12.2499 59.7322 12.2499 59.3223C12.2499 58.9123 11.9175 58.5801 11.5077 58.5801Z" fill="#009FE8"/>
<path d="M51.4758 26.6957C58.8343 26.6957 64.8209 20.7093 64.8209 13.3508C64.8209 5.98928 58.8343 0 51.4758 0C44.114 0 38.125 5.98928 38.125 13.3508C38.125 20.7093 44.114 26.6957 51.4758 26.6957ZM51.4758 1.48438C58.0157 1.48438 63.3365 6.80749 63.3365 13.3508C63.3365 19.8907 58.0157 25.2112 51.4758 25.2112C44.9326 25.2112 39.6094 19.8907 39.6094 13.3508C39.6095 6.80762 44.9326 1.48438 51.4758 1.48438Z" fill="#009FE8"/>
<path d="M48.0191 18.9469C48.9944 19.8169 50.4958 19.7286 51.3664 18.7761L58.2982 11.1924C59.1992 10.2065 59.1312 8.67848 58.1441 7.77672C57.1617 6.87886 55.6299 6.94658 54.7291 7.93059L49.4311 13.7277L48.0404 12.4875C47.0464 11.6008 45.5141 11.6885 44.6279 12.6822C43.7385 13.6791 43.8249 15.2064 44.8227 16.0957L48.0191 18.9469ZM45.7354 13.6709C46.0775 13.2874 46.6676 13.2527 47.0527 13.5958L48.9904 15.3241C49.2924 15.5942 49.7572 15.5709 50.0322 15.2706L55.8251 8.93224C56.1716 8.55264 56.7636 8.52579 57.1428 8.87282C57.5252 9.22218 57.5491 9.81155 57.2022 10.1908L50.2704 17.7747C49.9395 18.1364 49.3726 18.1653 49.0069 17.8389L45.8104 14.9879C45.4253 14.6449 45.3924 14.0558 45.7354 13.6709Z" fill="#009FE8"/>
</svg>
