<svg width="82" height="82" viewBox="0 0 82 82" fill="none" xmlns="http://www.w3.org/2000/svg">
<mask id="mask0_930_174" style="mask-type:luminance" maskUnits="userSpaceOnUse" x="0" y="0" width="82" height="82">
<path d="M0 1.52588e-05H82V82H0V1.52588e-05Z" fill="white"/>
</mask>
<g mask="url(#mask0_930_174)">
<path d="M71.1627 64.8148H10.9071C8.64779 64.8148 6.81641 62.9854 6.81641 60.7286V11.1511H75.2534V60.7286C75.2534 62.9854 73.4219 64.8148 71.1627 64.8148Z" stroke="#009FE8" stroke-width="5" stroke-miterlimit="10"/>
<path d="M75.2676 11.1511H6.80288C4.39188 11.1511 2.4375 9.19674 2.4375 6.7859V6.76781C2.4375 4.35682 4.39188 2.40243 6.80288 2.40243H75.2676C77.6784 2.40243 79.6328 4.35682 79.6328 6.76781V6.7859C79.6328 9.19674 77.6784 11.1511 75.2676 11.1511Z" stroke="#009FE8" stroke-width="5" stroke-miterlimit="10"/>
<path d="M41.0352 64.8148V79.5209" stroke="#009FE8" stroke-width="5" stroke-miterlimit="10" stroke-linecap="round"/>
<path d="M50.6445 79.5977L41.0983 64.9121C41.0686 64.8663 41.0017 64.8663 40.9719 64.9121L31.4258 79.5977" stroke="#009FE8" stroke-width="5" stroke-miterlimit="10" stroke-linecap="round"/>
<path d="M27.0882 26.1803C27.0882 29.0758 24.7402 31.4229 21.8439 31.4229C18.9475 31.4229 16.5996 29.0758 16.5996 26.1803C16.5996 23.285 18.9475 20.9377 21.8439 20.9377C24.7402 20.9377 27.0882 23.285 27.0882 26.1803Z" stroke="#009FE8" stroke-width="5" stroke-miterlimit="10"/>
<path d="M67.0031 54.3646L59.3242 46.6882" stroke="#009FE8" stroke-width="5" stroke-miterlimit="10" stroke-linecap="round"/>
<path d="M67.0031 46.6882L59.3242 54.3646" stroke="#009FE8" stroke-width="5" stroke-miterlimit="10" stroke-linecap="round"/>
<path d="M19.2852 49.7339L35.0348 34.7433C35.5743 34.2918 36.3716 34.3355 36.8585 34.8432L45.8745 44.2477C46.4486 44.8467 47.4246 44.7835 47.9164 44.1151L62.3039 26.3804" stroke="#009FE8" stroke-width="5" stroke-miterlimit="10" stroke-linecap="round"/>
<path d="M57.0117 26.6837L61.8978 26.2593C62.2235 26.2309 62.5081 26.4774 62.5265 26.8036L62.7804 31.3037" stroke="#009FE8" stroke-width="5" stroke-miterlimit="10" stroke-linecap="round"/>
</g>
</svg>
