<svg width="43" height="43" viewBox="0 0 43 43" fill="none" xmlns="http://www.w3.org/2000/svg">
<g clip-path="url(#clip0_919_1815)">
<path d="M32.6334 16.3006C33.3268 17.0065 33.316 18.1406 32.6083 18.834L24.6784 26.6188C23.2755 27.9948 21.4695 28.681 19.6617 28.681C17.8737 28.681 16.0856 28.0073 14.6881 26.6582L11.2857 23.3132C10.5798 22.6198 10.5708 21.4857 11.2642 20.7797C11.9558 20.072 13.0935 20.0631 13.7976 20.7583L17.1892 24.0925C18.5796 25.4363 20.7744 25.4291 22.1719 24.0603L30.1 16.2773C30.8041 15.5821 31.9347 15.5947 32.6334 16.3006ZM43 21.5C43 33.3555 33.3555 43 21.5 43C9.64454 43 0 33.3555 0 21.5C0 9.64454 9.64454 0 21.5 0C33.3555 0 43 9.64454 43 21.5ZM39.4167 21.5C39.4167 11.6207 31.3792 3.58333 21.5 3.58333C11.6207 3.58333 3.58333 11.6207 3.58333 21.5C3.58333 31.3792 11.6207 39.4167 21.5 39.4167C31.3792 39.4167 39.4167 31.3792 39.4167 21.5Z" fill="#009FE8"/>
</g>
<defs>
<clipPath id="clip0_919_1815">
<rect width="43" height="43" fill="white"/>
</clipPath>
</defs>
</svg>
