<svg width="54" height="63" viewBox="0 0 54 63" fill="none" xmlns="http://www.w3.org/2000/svg">
<path d="M5.96765 52.3492H4.27093C1.91573 52.3492 0 50.4334 0 48.0782V4.27093C0 1.91573 1.91573 0 4.27093 0H38.4953C40.8505 0 42.7662 1.91573 42.7662 4.27093V5.96764C42.7662 6.36018 42.4476 6.67876 42.0551 6.67876C41.6626 6.67876 41.344 6.36018 41.344 5.96764V4.27093C41.344 2.7008 40.0668 1.42222 38.4953 1.42222H4.27093C2.7008 1.42222 1.42222 2.69938 1.42222 4.27093V48.0782C1.42222 49.6484 2.69938 50.9269 4.27093 50.9269H5.96907C6.3616 50.9269 6.68018 51.2455 6.68018 51.638C6.68018 52.0306 6.36018 52.3492 5.96765 52.3492Z" fill="#009FE8"/>
<path d="M11.2249 57.6057H9.52679C7.17159 57.6057 5.25586 55.69 5.25586 53.3348V9.52753C5.25586 7.17233 7.17159 5.25659 9.52679 5.25659H43.7511C46.1063 5.25659 48.0221 7.17233 48.0221 9.52753V11.2257C48.0221 11.6182 47.7035 11.9368 47.311 11.9368C46.9184 11.9368 46.5999 11.6182 46.5999 11.2257V9.52753C46.5999 7.95739 45.3227 6.67881 43.7511 6.67881H9.52679C7.95666 6.67881 6.67808 7.95597 6.67808 9.52753V53.3348C6.67808 54.9049 7.95524 56.1835 9.52679 56.1835H11.2249C11.6175 56.1835 11.936 56.5021 11.936 56.8946C11.936 57.2872 11.6175 57.6057 11.2249 57.6057Z" fill="#009FE8"/>
<path d="M49.009 62.8622H14.7846C12.4294 62.8622 10.5137 60.9465 10.5137 58.5913V14.784C10.5137 12.4288 12.4294 10.5131 14.7846 10.5131H49.009C51.3642 10.5131 53.2799 12.4288 53.2799 14.784V58.5913C53.2799 60.9465 51.3642 62.8622 49.009 62.8622ZM14.7846 11.9353C13.2145 11.9353 11.9359 13.2124 11.9359 14.784V58.5913C11.9359 60.1614 13.213 61.44 14.7846 61.44H49.009C50.5791 61.44 51.8577 60.1628 51.8577 58.5913V14.784C51.8577 13.2139 50.5805 11.9353 49.009 11.9353H14.7846Z" fill="#009FE8"/>
<path d="M19.7144 32.0298C17.1459 32.0298 15.0566 29.9406 15.0566 27.372C15.0566 26.9795 15.3752 26.6609 15.7678 26.6609C16.1603 26.6609 16.4789 26.9795 16.4789 27.372C16.4789 29.1555 17.931 30.6076 19.7144 30.6076C21.4979 30.6076 22.95 29.1555 22.95 27.372C22.95 25.5886 21.4979 24.1365 19.7144 24.1365C17.1459 24.1365 15.0566 22.0472 15.0566 19.4787C15.0566 16.9102 17.1459 14.8209 19.7144 14.8209C22.283 14.8209 24.3722 16.9102 24.3722 19.4787C24.3722 19.8712 24.0536 20.1898 23.6611 20.1898C23.2686 20.1898 22.95 19.8712 22.95 19.4787C22.95 17.6952 21.4979 16.2431 19.7144 16.2431C17.931 16.2431 16.4789 17.6952 16.4789 19.4787C16.4789 21.2622 17.931 22.7143 19.7144 22.7143C22.283 22.7143 24.3722 24.8035 24.3722 27.372C24.3722 29.9406 22.283 32.0298 19.7144 32.0298Z" fill="#009FE8"/>
<path d="M26.7756 32.0298C26.383 32.0298 26.0645 31.7112 26.0645 31.3187V15.532C26.0645 15.1395 26.383 14.8209 26.7756 14.8209C27.1681 14.8209 27.4867 15.1395 27.4867 15.532V31.3187C27.4867 31.7112 27.1681 32.0298 26.7756 32.0298Z" fill="#009FE8"/>
<path d="M34.3848 32.0299C34.1985 32.0299 34.0122 31.9573 33.8728 31.8123L26.2639 23.9189C25.998 23.643 25.998 23.2078 26.2639 22.9319L33.8728 15.0386C34.1459 14.7556 34.5953 14.747 34.8783 15.0201C35.1613 15.2932 35.1699 15.7426 34.8968 16.0256L27.7644 23.4254L34.8968 30.8252C35.1699 31.1083 35.1613 31.5577 34.8783 31.8308C34.7404 31.9644 34.5626 32.0299 34.3848 32.0299Z" fill="#009FE8"/>
<path d="M42.7643 32.0298C39.4705 32.0298 36.791 29.3503 36.791 26.0565V15.532C36.791 15.1395 37.1096 14.8209 37.5021 14.8209C37.8947 14.8209 38.2132 15.1395 38.2132 15.532V26.0565C38.2132 28.5653 40.2555 30.6076 42.7643 30.6076C45.2731 30.6076 47.3155 28.5667 47.3155 26.0565V15.532C47.3155 15.1395 47.634 14.8209 48.0266 14.8209C48.4191 14.8209 48.7377 15.1395 48.7377 15.532V26.0565C48.7377 29.3503 46.0582 32.0298 42.7643 32.0298Z" fill="#009FE8"/>
<path d="M47.4691 37.5055H16.3224C15.9299 37.5055 15.6113 37.1869 15.6113 36.7944C15.6113 36.4018 15.9299 36.0833 16.3224 36.0833H47.4691C47.8616 36.0833 48.1802 36.4018 48.1802 36.7944C48.1802 37.1869 47.8616 37.5055 47.4691 37.5055Z" fill="#009FE8"/>
<path d="M47.4691 42.7677H16.3224C15.9299 42.7677 15.6113 42.4491 15.6113 42.0566C15.6113 41.664 15.9299 41.3455 16.3224 41.3455H47.4691C47.8616 41.3455 48.1802 41.664 48.1802 42.0566C48.1802 42.4491 47.8616 42.7677 47.4691 42.7677Z" fill="#009FE8"/>
<path d="M47.4691 48.0299H16.3224C15.9299 48.0299 15.6113 47.7113 15.6113 47.3188C15.6113 46.9262 15.9299 46.6077 16.3224 46.6077H47.4691C47.8616 46.6077 48.1802 46.9262 48.1802 47.3188C48.1802 47.7113 47.8616 48.0299 47.4691 48.0299Z" fill="#009FE8"/>
<path d="M47.4691 53.2921H16.3224C15.9299 53.2921 15.6113 52.9735 15.6113 52.581C15.6113 52.1885 15.9299 51.8699 16.3224 51.8699H47.4691C47.8616 51.8699 48.1802 52.1885 48.1802 52.581C48.1802 52.9735 47.8616 53.2921 47.4691 53.2921Z" fill="#009FE8"/>
<path d="M47.4691 58.5543H16.3224C15.9299 58.5543 15.6113 58.2357 15.6113 57.8432C15.6113 57.4507 15.9299 57.1321 16.3224 57.1321H47.4691C47.8616 57.1321 48.1802 57.4507 48.1802 57.8432C48.1802 58.2357 47.8616 58.5543 47.4691 58.5543Z" fill="#009FE8"/>
</svg>
