<svg width="38" height="38" viewBox="0 0 38 38" fill="none" xmlns="http://www.w3.org/2000/svg">
<g clip-path="url(#clip0_919_1811)">
<path d="M1.58333 9.5V1.58333H4.75V6.498C8.322 2.4415 13.4963 0 19 0C29.4769 0 38 8.52308 38 19H34.8333C34.8333 10.2695 27.7305 3.16667 19 3.16667C14.0062 3.16667 9.31792 5.5575 6.34758 9.5H12.6667V12.6667H4.75C3.00358 12.6667 1.58333 11.2464 1.58333 9.5ZM33.25 25.3333H25.3333V28.5H31.6524C28.6805 32.4425 23.9938 34.8333 19 34.8333C10.2695 34.8333 3.16667 27.7305 3.16667 19H0C0 29.4769 8.52308 38 19 38C24.5037 38 29.678 35.5585 33.25 31.502V36.4167H36.4167V28.5C36.4167 26.7536 34.9964 25.3333 33.25 25.3333Z" fill="#009FE8"/>
</g>
<defs>
<clipPath id="clip0_919_1811">
<rect width="38" height="38" fill="white"/>
</clipPath>
</defs>
</svg>
