<svg width="67" height="67" viewBox="0 0 67 67" fill="none" xmlns="http://www.w3.org/2000/svg">
<g clip-path="url(#clip0_930_211)">
<path d="M63.0443 64.4765H60.6007V45.4061C60.6007 44.8688 60.1652 44.4331 59.6277 44.4331C59.0903 44.4331 58.6548 44.8688 58.6548 45.4061V64.4765H53.7675V37.5941H58.6548V40.8656C58.6548 41.4029 59.0903 41.8385 59.6277 41.8385C60.1652 41.8385 60.6007 41.4029 60.6007 40.8656V37.1402C60.6007 36.3176 59.9314 35.6483 59.1088 35.6483H53.3135C52.4909 35.6483 51.8216 36.3176 51.8216 37.1402V64.4765H50.1801V49.3979C50.1801 48.5753 49.5108 47.906 48.6882 47.906H42.8929C42.0702 47.906 41.401 48.5753 41.401 49.3979V64.4765H39.7596V42.7356C39.7596 41.913 39.0903 41.2437 38.2677 41.2437H32.4724C31.6498 41.2437 30.9805 41.913 30.9805 42.7356V64.4765H29.339V59.2873C29.339 58.75 28.9035 58.3143 28.366 58.3143C27.8285 58.3143 27.393 58.75 27.393 59.2873V64.4765H22.5058V37.3815H27.393V54.7467C27.393 55.2841 27.8285 55.7197 28.366 55.7197C28.9035 55.7197 29.339 55.2841 29.339 54.7467V36.9274C29.339 36.1048 28.6697 35.4355 27.8471 35.4355H22.0518C21.2291 35.4355 20.5599 36.1048 20.5599 36.9274V64.4765H18.9185V49.2294C18.9185 48.4068 18.2492 47.7375 17.4266 47.7375H11.6311C10.8085 47.7375 10.1392 48.4068 10.1392 49.2294V64.4765H7.69564C7.15816 64.4765 6.72266 64.9122 6.72266 65.4495C6.72266 65.9869 7.15816 66.4225 7.69564 66.4225H63.0443C63.5818 66.4225 64.0173 65.9869 64.0173 65.4495C64.0173 64.9122 63.5817 64.4765 63.0443 64.4765ZM16.9724 64.4765H12.0852V49.6835H16.9724V64.4765ZM37.8135 64.4765H32.9263V43.1897H37.8135V64.4765ZM48.2341 64.4765H43.3469V49.852H48.2341V64.4765Z" fill="#009FE8"/>
<path d="M15.9124 22.0585C15.9124 24.1469 16.6262 26.0705 17.82 27.6026L16.9296 28.4638C16.2396 28.0117 15.4158 27.7478 14.531 27.7478C12.1107 27.7478 10.1415 29.717 10.1415 32.1374C10.1415 34.5578 12.1107 36.5269 14.531 36.5269C16.9514 36.5269 18.9206 34.5578 18.9206 32.1374C18.9206 31.3048 18.6876 30.5256 18.2834 29.8616L19.1719 29.0023C20.74 30.3096 22.7552 31.0977 24.9515 31.0977C27.5118 31.0977 29.8249 30.0261 31.4711 28.3101L41.8093 36.2755C41.5493 36.8358 41.4031 37.4592 41.4031 38.1164C41.4031 40.5368 43.3723 42.506 45.7926 42.506C48.213 42.506 50.1822 40.5368 50.1822 38.1164C50.1822 37.2325 49.9187 36.4094 49.4674 35.7199L53.9356 31.1052C54.6001 31.5103 55.3799 31.7438 56.2133 31.7438C58.6336 31.7438 60.6028 29.7746 60.6028 27.3542C60.6028 24.9338 58.6336 22.9646 56.2133 22.9646C53.7929 22.9646 51.8237 24.9338 51.8237 27.3542C51.8237 28.2381 52.0872 29.0612 52.5385 29.7507L48.0703 34.3652C47.4058 33.9603 46.626 33.7267 45.7926 33.7267C44.7316 33.7267 43.7573 34.1053 42.9975 34.7343L32.6618 26.7708C33.5042 25.3977 33.9908 23.7839 33.9908 22.0583C33.9908 20.8727 33.7628 19.7173 33.3135 18.624C33.1091 18.127 32.541 17.8901 32.0436 18.094C31.5467 18.2983 31.3094 18.8668 31.5137 19.364C31.866 20.2213 32.0448 21.1279 32.0448 22.0585C32.0448 23.3372 31.703 24.537 31.1084 25.574L28.9349 23.8993C29.1949 23.339 29.3411 22.7155 29.3411 22.0583C29.3411 19.6379 27.3719 17.6688 24.9515 17.6688C22.5311 17.6688 20.562 19.6379 20.562 22.0583C20.562 22.8909 20.795 23.6701 21.1992 24.3341L19.2276 26.241C18.3676 25.0673 17.8582 23.6215 17.8582 22.0583C17.8582 21.1118 18.0457 20.2088 18.3838 19.3825H18.9176C19.796 19.3825 20.5105 18.668 20.5105 17.7895V16.536C21.7269 15.5551 23.2709 14.965 24.9515 14.965C26.4058 14.965 27.8046 15.4034 28.9967 16.2328C29.4377 16.5397 30.044 16.4309 30.3509 15.9898C30.6579 15.5487 30.549 14.9423 30.1079 14.6354C28.5881 13.578 26.8051 13.019 24.9515 13.019C23.3382 13.019 21.8229 13.4451 20.5105 14.189V11.3574C20.5105 10.479 19.7959 9.7644 18.9176 9.7644H2.20416C1.32576 9.7644 0.611328 10.479 0.611328 11.3574V17.7898C0.611328 18.6682 1.32588 19.3828 2.20416 19.3828H16.3209C16.0573 20.2287 15.9124 21.1266 15.9124 22.0585ZM14.531 34.581C13.1837 34.581 12.0874 33.4848 12.0874 32.1374C12.0874 30.79 13.1837 29.6938 14.531 29.6938C15.8784 29.6938 16.9746 30.79 16.9746 32.1374C16.9746 33.4848 15.8784 34.581 14.531 34.581ZM56.2134 24.9106C57.5608 24.9106 58.657 26.0068 58.657 27.3542C58.657 28.7016 57.5608 29.7978 56.2134 29.7978C54.866 29.7978 53.7698 28.7016 53.7698 27.3542C53.7698 26.0068 54.866 24.9106 56.2134 24.9106ZM45.7928 35.6728C47.1402 35.6728 48.2364 36.769 48.2364 38.1164C48.2364 39.4638 47.1402 40.56 45.7928 40.56C44.4454 40.56 43.3492 39.4638 43.3492 38.1164C43.3492 36.769 44.4454 35.6728 45.7928 35.6728ZM24.9515 19.6149C26.2989 19.6149 27.3951 20.7111 27.3951 22.0585C27.3951 23.4058 26.2989 24.5021 24.9515 24.5021C23.6041 24.5021 22.5079 23.4058 22.5079 22.0585C22.5079 20.7111 23.6043 19.6149 24.9515 19.6149ZM22.5531 25.7319C23.2431 26.184 24.0669 26.4479 24.9517 26.4479C26.0127 26.4479 26.987 26.0693 27.7468 25.4403L29.92 27.1147C28.6391 28.3734 26.8849 29.1516 24.9517 29.1516C23.3038 29.1516 21.7868 28.5852 20.5813 27.6391L22.5531 25.7319ZM2.55716 17.4367V11.7102H18.5645V17.4367H2.55716Z" fill="#009FE8"/>
<path d="M7.30583 13.6006H4.96419C4.42672 13.6006 3.99121 14.0362 3.99121 14.5736C3.99121 15.1109 4.42672 15.5465 4.96419 15.5465H7.30596C7.84343 15.5465 8.27894 15.1109 8.27894 14.5736C8.27894 14.0362 7.8433 13.6006 7.30583 13.6006Z" fill="#009FE8"/>
<path d="M16.1495 13.6006H10.3421C9.80465 13.6006 9.36914 14.0362 9.36914 14.5736C9.36914 15.1109 9.80465 15.5465 10.3421 15.5465H16.1495C16.687 15.5465 17.1225 15.1109 17.1225 14.5736C17.1225 14.0362 16.6869 13.6006 16.1495 13.6006Z" fill="#009FE8"/>
<path d="M54.0883 18.9315C54.0999 18.9554 54.1123 18.9787 54.1257 19.0017L55.3859 21.1493C55.5606 21.4469 55.88 21.6298 56.2251 21.6298C56.5703 21.6298 56.8896 21.4469 57.0643 21.1491L58.3245 19.0013C58.338 18.9785 58.3504 18.9551 58.3618 18.9314C62.6848 17.9462 65.8114 14.0333 65.8114 9.58623C65.8114 6.9418 64.7579 4.47925 62.8449 2.65251C60.9328 0.82668 58.4209 -0.110625 55.7725 0.010414C53.4043 0.119647 51.1655 1.10962 49.469 2.79794C47.7723 4.48651 46.7715 6.72035 46.6514 9.08793C46.4136 13.773 49.5357 17.896 54.0883 18.9315ZM48.5947 9.18679C48.7915 5.31004 51.9837 2.1332 55.8621 1.95443C57.9748 1.85674 59.9769 2.60464 61.5009 4.05996C63.0257 5.51606 63.8655 7.47875 63.8655 9.58636C63.8655 13.159 61.3343 16.299 57.847 17.0525C57.291 17.1726 56.8252 17.5631 56.6064 18.0842L56.2251 18.7343L55.8437 18.0842C55.6247 17.5632 55.1579 17.1726 54.6004 17.0518C50.9295 16.2571 48.4039 12.9494 48.5947 9.18679Z" fill="#009FE8"/>
<path d="M55.2388 10.5595H57.2185C57.6695 10.5595 58.0366 10.9265 58.0366 11.3776C58.0366 11.8288 57.6695 12.1958 57.2185 12.1958H53.7305C53.1931 12.1958 52.7576 12.6314 52.7576 13.1688C52.7576 13.7061 53.1931 14.1417 53.7305 14.1417H55.2556V15.0069C55.2556 15.5443 55.6912 15.9799 56.2286 15.9799C56.7661 15.9799 57.2016 15.5443 57.2016 15.0069V14.1417H57.2185C58.7425 14.1417 59.9825 12.9018 59.9825 11.3776C59.9825 9.85349 58.7425 8.61352 57.2185 8.61352H55.2388C54.7876 8.61352 54.4206 8.24651 54.4206 7.79531C54.4206 7.34424 54.7876 6.97723 55.2388 6.97723H58.7267C59.2642 6.97723 59.6997 6.54159 59.6997 6.00425C59.6997 5.4669 59.2642 5.03127 58.7267 5.03127H57.2016V4.1661C57.2016 3.62875 56.7661 3.19312 56.2286 3.19312C55.6912 3.19312 55.2556 3.62875 55.2556 4.1661V5.03127H55.2388C53.7147 5.03127 52.4746 6.27124 52.4746 7.79544C52.4746 9.31952 53.7147 10.5595 55.2388 10.5595Z" fill="#009FE8"/>
</g>
<defs>
<clipPath id="clip0_930_211">
<rect width="66.4221" height="66.4221" fill="white"/>
</clipPath>
</defs>
</svg>
