<svg width="80" height="80" viewBox="0 0 80 80" fill="none" xmlns="http://www.w3.org/2000/svg">
<path d="M74.1695 2.97192H50.4762C49.4582 2.97192 48.6329 3.7972 48.6329 4.81522V8.78961C48.6329 9.80764 49.4582 10.6329 50.4762 10.6329H64.9253L45.0833 30.4749C44.2219 31.3387 42.8232 31.3407 41.9594 30.4792C41.958 30.4778 41.9565 30.4763 41.9551 30.4749L35.29 23.8098C31.3672 19.894 25.0144 19.894 21.0916 23.8098L2.53947 42.3739C1.82001 43.0938 1.8202 44.2606 2.53989 44.9803L5.34725 47.7877C6.06711 48.5075 7.23422 48.5075 7.95407 47.7877L26.5182 29.2236C27.4455 28.2963 28.9489 28.2963 29.8762 29.2236L36.5413 35.8886C40.3984 39.7344 46.64 39.7344 50.4971 35.8886L70.339 16.0467V30.4957C70.339 31.5138 71.1643 32.339 72.1823 32.339H76.1567C77.1747 32.339 78 31.5138 78 30.4957V6.80242C78 4.68689 76.285 2.97192 74.1695 2.97192Z" fill="#009FE8"/>
<path d="M5.2207 59.7189V68.0903C5.2207 73.0265 9.2223 77.0281 14.1585 77.0281H65.2318C70.168 77.0281 74.1696 73.0265 74.1696 68.0903V41.8433C74.1696 40.8253 73.3443 40 72.3263 40H68.3519C67.3339 40 66.5086 40.8253 66.5086 41.8433V68.0903C66.5086 68.7955 65.937 69.3671 65.2318 69.3671H53.7403V52.058C53.7403 51.0399 52.915 50.2147 51.897 50.2147H47.9226C46.9046 50.2147 46.0793 51.0399 46.0793 52.058V69.3671H33.311V46.9506C33.311 45.9326 32.4857 45.1073 31.4677 45.1073H27.4933C26.4753 45.1073 25.65 45.9326 25.65 46.9506V69.3671H14.1585C13.4533 69.3671 12.8817 68.7955 12.8817 68.0903V59.7189C12.8817 58.7009 12.0564 57.8756 11.0384 57.8756H7.064C6.04598 57.8756 5.2207 58.7009 5.2207 59.7189Z" fill="#009FE8"/>
</svg>
